<svg xmlns="http://www.w3.org/2000/svg" viewBox="0 0 900 318" width="900" class="arch-svg" role="img" aria-label="The two data contracts">
  <style>
    .arch-svg text { font-family: var(--font-sans, Inter, "Segoe UI", system-ui, sans-serif); }
    .arch-svg .bx { fill: var(--color-surface-2); stroke: var(--color-border); stroke-width: 1.2; }
    .arch-svg .bx-accent { stroke: var(--color-accent); stroke-width: 1.8; }
    .arch-svg .bx-good { stroke: var(--color-good); stroke-width: 1.8; }
    .arch-svg .bx-bad { stroke: var(--color-bad); stroke-width: 1.8; }
    .arch-svg .bx-warn { stroke: var(--color-warn); stroke-width: 1.8; }
    .arch-svg .ttl { fill: var(--color-fg); font-size: 14px; font-weight: 700; }
    .arch-svg .hd { fill: var(--color-fg); font-size: 12.5px; font-weight: 600; }
    .arch-svg .mu { fill: var(--color-fg-subtle); font-size: 10.5px; }
    .arch-svg .nt { fill: var(--color-fg-subtle); font-size: 11px; }
    .arch-svg .band { stroke: var(--color-border); stroke-dasharray: 3 4; }
    .arch-svg .flow { fill: none; stroke: var(--color-fg-faint); stroke-width: 1.5; }
  </style>
  <defs>
    <marker id="arch-arrow" viewBox="0 0 8 8" refX="7" refY="4" markerWidth="7" markerHeight="7" orient="auto">
      <path d="M0,0 L8,4 L0,8 z" fill="var(--color-fg-faint)"/>
    </marker>
  </defs>
<g class="l-en">
<text class="ttl" x="22" y="28">The two contracts and the gates between them</text>
<rect class="bx bx-warn" x="22.0" y="64.0" width="270.0" height="94.0" rx="6"/>
<text class="hd" x="32.0" y="85.0">Contract 1, what gets in</text>
<text class="mu" x="32.0" y="104.0">REJECT outside the contract range (E in</text>
<text class="mu" x="32.0" y="118.0">0.5 to 150 GPa, Pf in 0.05 to 3 kg/m3)</text>
<text class="mu" x="32.0" y="132.0">FLAG and stamp outside the envelope;</text>
<text class="mu" x="32.0" y="146.0">never clip</text>
<rect class="bx bx-good" x="22.0" y="168.0" width="270.0" height="80.0" rx="6"/>
<text class="hd" x="32.0" y="189.0">Integrity gate</text>
<text class="mu" x="32.0" y="208.0">reproduce the paper&#x27;s own summary table,</text>
<text class="mu" x="32.0" y="222.0">plus a pinned digest; it found five</text>
<text class="mu" x="32.0" y="236.0">transcription errors</text>
<rect class="bx bx-accent" x="312.0" y="64.0" width="270.0" height="80.0" rx="6"/>
<text class="hd" x="322.0" y="85.0">Contract 2, what goes out</text>
<text class="mu" x="322.0" y="104.0">case, benchmark and model files, each</text>
<text class="mu" x="322.0" y="118.0">content-addressed, listed with its</text>
<text class="mu" x="322.0" y="132.0">digest in the index</text>
<rect class="bx" x="312.0" y="154.0" width="270.0" height="80.0" rx="6"/>
<text class="hd" x="322.0" y="175.0">A typed mirror</text>
<text class="mu" x="322.0" y="194.0">the browser&#x27;s contract types; a field</text>
<text class="mu" x="322.0" y="208.0">that appears in an artifact and not in</text>
<text class="mu" x="322.0" y="222.0">the mirror fails the tests</text>
<rect class="bx bx-good" x="602.0" y="64.0" width="276.0" height="80.0" rx="6"/>
<text class="hd" x="612.0" y="85.0">Release gate</text>
<text class="mu" x="612.0" y="104.0">re-read and re-hash every file; every</text>
<text class="mu" x="612.0" y="118.0">predicted cell carries a number or a</text>
<text class="mu" x="612.0" y="132.0">reason, never neither</text>
<rect class="bx bx-good" x="602.0" y="154.0" width="276.0" height="80.0" rx="6"/>
<text class="hd" x="612.0" y="175.0">Model fixtures</text>
<text class="mu" x="612.0" y="194.0">the original models&#x27; predictions at 116</text>
<text class="mu" x="612.0" y="208.0">blasts; the browser walker must reproduce</text>
<text class="mu" x="612.0" y="222.0">them</text>
<line class="flow" x1="157.0" y1="158.0" x2="157.0" y2="166.0" marker-end="url(#arch-arrow)"/>
<line class="flow" x1="292.0" y1="208.0" x2="310.0" y2="104.0" marker-end="url(#arch-arrow)"/>
<line class="flow" x1="447.0" y1="144.0" x2="447.0" y2="152.0" marker-end="url(#arch-arrow)"/>
<line class="flow" x1="582.0" y1="104.0" x2="600.0" y2="104.0" marker-end="url(#arch-arrow)"/>
<line class="flow" x1="740.0" y1="144.0" x2="740.0" y2="152.0" marker-end="url(#arch-arrow)"/>
<line class="band" x1="22" y1="260.0" x2="878" y2="260.0"/>
<text class="nt" x="22" y="278.0">The integrity gate exists because the corpus as first assembled disagreed with the published tables in five cells, two on the measured</text>
<text class="nt" x="22" y="293.0">size; the tell was a powder-factor maximum of 1.47 against the 1.26 the paper prints.</text>
</g>
<g class="l-es">
<text class="ttl" x="22" y="28">Los dos contratos y las compuertas entre ellos</text>
<rect class="bx bx-warn" x="22.0" y="64.0" width="270.0" height="94.0" rx="6"/>
<text class="hd" x="32.0" y="85.0">Contrato 1, qué entra</text>
<text class="mu" x="32.0" y="104.0">RECHAZA fuera del rango (E de 0.5 a 150</text>
<text class="mu" x="32.0" y="118.0">GPa, Pf de 0.05 a 3 kg/m3)</text>
<text class="mu" x="32.0" y="132.0">MARCA y sella fuera de la envolvente;</text>
<text class="mu" x="32.0" y="146.0">nunca recorta</text>
<rect class="bx bx-good" x="22.0" y="168.0" width="270.0" height="80.0" rx="6"/>
<text class="hd" x="32.0" y="189.0">Compuerta de integridad</text>
<text class="mu" x="32.0" y="208.0">reproduce la tabla resumen del artículo,</text>
<text class="mu" x="32.0" y="222.0">más un resumen fijado; encontró cinco</text>
<text class="mu" x="32.0" y="236.0">errores de transcripción</text>
<rect class="bx bx-accent" x="312.0" y="64.0" width="270.0" height="80.0" rx="6"/>
<text class="hd" x="322.0" y="85.0">Contrato 2, qué sale</text>
<text class="mu" x="322.0" y="104.0">archivos de caso, benchmark y modelos,</text>
<text class="mu" x="322.0" y="118.0">cada uno por contenido, listados con su</text>
<text class="mu" x="322.0" y="132.0">resumen en el índice</text>
<rect class="bx" x="312.0" y="154.0" width="270.0" height="80.0" rx="6"/>
<text class="hd" x="322.0" y="175.0">Un espejo tipado</text>
<text class="mu" x="322.0" y="194.0">los tipos del navegador; un campo que</text>
<text class="mu" x="322.0" y="208.0">aparece en un artefacto y no en el</text>
<text class="mu" x="322.0" y="222.0">espejo hace fallar las pruebas</text>
<rect class="bx bx-good" x="602.0" y="64.0" width="276.0" height="80.0" rx="6"/>
<text class="hd" x="612.0" y="85.0">Compuerta de publicación</text>
<text class="mu" x="612.0" y="104.0">relee y rehashea cada archivo; cada celda</text>
<text class="mu" x="612.0" y="118.0">predicha lleva un número o una razón,</text>
<text class="mu" x="612.0" y="132.0">nunca ninguna</text>
<rect class="bx bx-good" x="602.0" y="154.0" width="276.0" height="80.0" rx="6"/>
<text class="hd" x="612.0" y="175.0">Fijaciones de modelos</text>
<text class="mu" x="612.0" y="194.0">las predicciones de los modelos</text>
<text class="mu" x="612.0" y="208.0">originales en 116 tiros; el recorrido del</text>
<text class="mu" x="612.0" y="222.0">navegador debe reproducirlas</text>
<line class="flow" x1="157.0" y1="158.0" x2="157.0" y2="166.0" marker-end="url(#arch-arrow)"/>
<line class="flow" x1="292.0" y1="208.0" x2="310.0" y2="104.0" marker-end="url(#arch-arrow)"/>
<line class="flow" x1="447.0" y1="144.0" x2="447.0" y2="152.0" marker-end="url(#arch-arrow)"/>
<line class="flow" x1="582.0" y1="104.0" x2="600.0" y2="104.0" marker-end="url(#arch-arrow)"/>
<line class="flow" x1="740.0" y1="144.0" x2="740.0" y2="152.0" marker-end="url(#arch-arrow)"/>
<line class="band" x1="22" y1="260.0" x2="878" y2="260.0"/>
<text class="nt" x="22" y="278.0">La compuerta de integridad existe porque el corpus, tal como se ensambló primero, discrepaba de las tablas publicadas en cinco celdas,</text>
<text class="nt" x="22" y="293.0">dos sobre el tamaño medido; la señal fue un máximo de factor de carga de 1.47 frente al 1.26 que imprime el artículo.</text>
</g>
</svg>
